PathFileType	4	(X/Y/Z)	/Users/niels/Desktop/University/Third Semester/Perception and Action/Exam/Gymnastics Motion Tracking/Code for Gym Tracking/Analyzed Data/Webcam_Backflip/id3_1_trajectory_Sports2D/id3_1_trajectory_Sports2D_px_person00.trc
DataRate	CameraRate	NumFrames	NumMarkers	Units	OrigDataRate	OrigDataStartFrame	OrigNumFrames
29.8125	29.8125	8	22	m	29.8125	80	160
Frame#	Time	Hip			RHip			RKnee			RAnkle			RBigToe			RSmallToe			RHeel			LHip			LKnee			LAnkle			LBigToe			LSmallToe			LHeel			Neck			Head			Nose			RShoulder			RElbow			RWrist			LShoulder			LElbow			LWrist		
		X1	Y1	Z1	X2	Y2	Z2	X3	Y3	Z3	X4	Y4	Z4	X5	Y5	Z5	X6	Y6	Z6	X7	Y7	Z7	X8	Y8	Z8	X9	Y9	Z9	X10	Y10	Z10	X11	Y11	Z11	X12	Y12	Z12	X13	Y13	Z13	X14	Y14	Z14	X15	Y15	Z15	X16	Y16	Z16	X17	Y17	Z17	X18	Y18	Z18	X19	Y19	Z19	X20	Y20	Z20	X21	Y21	Z21	X22	Y22	Z22
80	2.683438155136268	1.0573044713269977	-0.6714094266613968	0.0	1.0607274379278981	-0.6743913778655041	0.0	1.138191958697431	-0.7631079102380363	0.0	1.1627496207819485	-0.8727981862681324	0.0	1.202437752118719	-0.8751751724619452	0.0	1.1971441014411859	-0.8890323638246553	0.0	1.155826222268819	-0.8921939514632294	0.0	1.052345177791911	-0.6695704829747007	0.0	1.1202446301871416	-0.7615662996022475	0.0	1.1215377583129311	-0.8692042282258744	0.0	1.1563115304354206	-0.8838575591860471	0.0	1.1371750388700255	-0.8758629070902867	0.0	1.1143727032486723	-0.8766546254837599	0.0	1.1101834282956817	-0.5283425712316568	0.0	1.1416237257702384	-0.4581960091618959	0.0	1.1496744483270782	-0.4997627613982454	0.0	1.1212396519186223	-0.5447362369953211	0.0	1.201074433187043	-0.5402699912596559	0.0	1.2665592075890106	-0.5011047152083754	0.0	1.0899303335781723	-0.5271898212595932	0.0	1.1373314713712541	-0.4931573354669915	0.0	1.1679320295839934	-0.4409296390659077	0.0
81	2.716981132075471	1.042089254933883	-0.6642402291117774	0.0	1.0436724969958322	-0.6674467490212083	0.0	1.128279977473932	-0.7431698072740834	0.0	1.1570620397731375	-0.8540734071079309	0.0	1.1995976434637987	-0.8544471399879604	0.0	1.1928077142949205	-0.867377387184206	0.0	1.1509596855047548	-0.8719418419719813	0.0	1.0399163802226894	-0.6623737112516247	0.0	1.1129180346142997	-0.7426415472812733	0.0	1.1209673399024624	-0.8502296019140091	0.0	1.1583487011720015	-0.8619112316613259	0.0	1.1429905900240571	-0.852742587690478	0.0	1.113718441995787	-0.8585799420693053	0.0	1.100227989553654	-0.5268387855438715	0.0	1.1311177713711196	-0.4575898687687138	0.0	1.1392993180266058	-0.4987181040910153	0.0	1.1085897670530374	-0.5404413179077245	0.0	1.189259752607052	-0.5347841876585858	0.0	1.254873214252637	-0.4973657769260883	0.0	1.082643387739342	-0.5260768593291009	0.0	1.1388865795947307	-0.4973541433364477	0.0	1.1720775645322958	-0.4464182311589576	0.0
82	2.7505241090146746	1.0222296417374162	-0.6473097931145321	0.0	1.022156918719395	-0.6509574814300938	0.0	1.1141912285311435	-0.7109548689137475	0.0	1.1464625316095514	-0.8233077577997943	0.0	1.191717006081385	-0.8228543851711637	0.0	1.1840799424914137	-0.8344601794774382	0.0	1.140679526691973	-0.8402103268370882	0.0	1.0233316465380224	-0.6454047210514275	0.0	1.1024467973019865	-0.7111059210153913	0.0	1.119268753919531	-0.8187035362430175	0.0	1.1593360169009839	-0.8259201932602276	0.0	1.1478996869355798	-0.8175320137013369	0.0	1.1121314630223913	-0.8286004470616073	0.0	1.0901434931076859	-0.5184842873031035	0.0	1.1231756014965164	-0.4510810517114005	0.0	1.1301661588738297	-0.4917590702057868	0.0	1.0955274286577332	-0.5299990978674417	0.0	1.176528997204358	-0.5280242885488342	0.0	1.2436273599152354	-0.49621906763558504	0.0	1.0752934309099542	-0.5174485836670575	0.0	1.1367288601281655	-0.4979456489874281	0.0	1.174808727300915	-0.4533999442187569	0.0
83	2.784067085953878	0.9995464571422413	-0.623981477586082	0.0	0.9980074742899084	-0.6281559660489011	0.0	1.0970006137147745	-0.6720707681198137	0.0	1.1290324108752763	-0.7851545217954885	0.0	1.1764448215052403	-0.785247085166998	0.0	1.1683014223858055	-0.7952663668799363	0.0	1.122884329122311	-0.8011383201860727	0.0	1.0039841048117266	-0.622089250497579	0.0	1.0894140425771806	-0.6726346957583816	0.0	1.1153097252528337	-0.7801471985563615	0.0	1.1580291670723803	-0.7817497862173162	0.0	1.1500313751696427	-0.7756046514995292	0.0	1.108479339698723	-0.7914810446611034	0.0	1.0791721804735228	-0.505259381176896	0.0	1.116184206197103	-0.44049413894028416	0.0	1.1209614963376042	-0.4807255170020712	0.0	1.0819992239995988	-0.5152073558365341	0.0	1.1627909334850017	-0.5201361253951049	0.0	1.231982077169967	-0.4959745904193951	0.0	1.0667603566315198	-0.5038975777938737	0.0	1.1309261778869693	-0.4958405400998786	0.0	1.1747851155967222	-0.4607132874592996	0.0
84	2.817610062893081	0.9760794814766333	-0.5979481196852509	0.0	0.9730206558085108	-0.6025066248218972	0.0	1.0779159709415502	-0.632413706132646	0.0	1.1035226526708397	-0.7447615885819934	0.0	1.1520971374716882	-0.7472869690429201	0.0	1.143375126301943	-0.7557365830730475	0.0	1.096308309879286	-0.759664567267379	0.0	0.98362547047217	-0.5960596106860182	0.0	1.0744787038283055	-0.6334159244284636	0.0	1.1078199510620224	-0.7409021574611474	0.0	1.1529168056008605	-0.7371673310182263	0.0	1.1475568019278573	-0.7336345630592808	0.0	1.1015739182514552	-0.7533168594718782	0.0	1.0668859849850914	-0.48906600963335756	0.0	1.1086469329429616	-0.4276229136979864	0.0	1.1104340712133631	-0.4673835726823987	0.0	1.0677105237416953	-0.49769778729114195	0.0	1.147669402914168	-0.5109401749898893	0.0	1.2188881240863747	-0.4948810257473501	0.0	1.056540844991254	-0.48778617474941344	0.0	1.1217440548442814	-0.4918670816842374	0.0	1.1710270903495388	-0.4670930095908542	0.0
85	2.8511530398322846	0.9534858433416071	-0.572450738254505	0.0	0.9487071688316054	-0.5770766624075614	0.0	1.0579315002191194	-0.5969987131827346	0.0	1.0696850200326364	-0.7063489863158992	0.0	1.1178397989656175	-0.7137825946437789	0.0	1.1082670646472996	-0.7206271215722941	0.0	1.0607488593996115	-0.7198061975464117	0.0	0.963696410879221	-0.5705162437241182	0.0	1.0583202937986433	-0.5986432193807248	0.0	1.0954971967133307	-0.706667651685865	0.0	1.1424211551831842	-0.699547201209387	0.0	1.1387836523507866	-0.6981423598642068	0.0	1.0900653608590076	-0.7199361035088411	0.0	1.053245825788669	-0.47138680040132547	0.0	1.0995601426864703	-0.41376034868223793	0.0	1.0979524627051516	-0.4529530629096666	0.0	1.052435539078319	-0.4787554236220783	0.0	1.1309114559971774	-0.5000576660107705	0.0	1.2037931969999196	-0.49146439965733557	0.0	1.044653788726771	-0.4708387017812362	0.0	1.1093849510444016	-0.4863646443609917	0.0	1.1632041981060819	-0.4715094651927315	0.0
86	2.884696016771488	0.9327072105678079	-0.5497354970969641	0.0	0.9261937133575546	-0.5540526606266477	0.0	1.037631857194012	-0.5693846071817379	0.0	1.0288529676677336	-0.6725548207753467	0.0	1.074288826587376	-0.6873517281460848	0.0	1.0637170617102079	-0.6923109807157005	0.0	1.0177385885041788	-0.6839218346601247	0.0	0.9449281130202717	-0.5477725262022645	0.0	1.0414192299897802	-0.5717938290322195	0.0	1.0769016846517956	-0.6812057932061352	0.0	1.1248029772210706	-0.6739126773035371	0.0	1.1220691741232653	-0.6736913701254449	0.0	1.0720846437325782	-0.6951575975498756	0.0	1.0385207205429094	-0.45328808333818615	0.0	1.0885746464654567	-0.3996837120981231	0.0	1.0836481602487675	-0.438171912738434	0.0	1.0362260892713606	-0.45939063040711053	0.0	1.1125117143275312	-0.48723798516519096	0.0	1.186673503072413	-0.48484582789083125	0.0	1.0313540427343544	-0.4541950579528842	0.0	1.0936309516512392	-0.4794715020001025	0.0	1.1510121487810652	-0.47360555032205853	0.0
87	2.918238993710691	0.9140523993008247	-0.5309326782033584	0.0	0.9061076188219322	-0.5345698039644772	0.0	1.0171360336117379	-0.5514568879085042	0.0	0.9840121904561296	-0.6447232123387345	0.0	1.0238457958708433	-0.6683547169446481	0.0	1.012462753388691	-0.6710484091328901	0.0	0.9706356837133416	-0.6532086937768771	0.0	0.9276547565293805	-0.5290607765747782	0.0	1.0239017523562404	-0.5546210072950969	0.0	1.05075453693363	-0.6657281668876828	0.0	1.0982882483254397	-0.6617623884864272	0.0	1.0959230579506474	-0.6616953394197879	0.0	1.0456760874877107	-0.6800043877312084	0.0	1.023139729757089	-0.4355950844287144	0.0	1.0758862611859543	-0.38589444066766365	0.0	1.0681116115068823	-0.4236015211633846	0.0	1.0193666343265448	-0.4404072652370343	0.0	1.0925798123111357	-0.4726245749759334	0.0	1.167692185940729	-0.47498866497659586	0.0	1.016962483626292	-0.4386880199802067	0.0	1.0738769990163504	-0.47168719114268237	0.0	1.133624514073229	-0.4739603304682408	0.0
